<svg width="64" height="64" viewBox="0 0 64 64" fill="none" xmlns="http://www.w3.org/2000/svg">
  <rect width="64" height="64" rx="14" fill="#FFF4EA"/>
  <g transform="translate(32 30)">
    <ellipse cx="0" cy="-13" rx="7" ry="12" fill="#FF9FC3"/>
    <ellipse cx="9.2" cy="-9.2" rx="7" ry="12" transform="rotate(45)" fill="#FFB56B"/>
    <ellipse cx="13" cy="0" rx="7" ry="12" transform="rotate(90)" fill="#71D9D1"/>
    <ellipse cx="9.2" cy="9.2" rx="7" ry="12" transform="rotate(135)" fill="#FFC8DF"/>
    <ellipse cx="0" cy="13" rx="7" ry="12" fill="#FFD177"/>
    <ellipse cx="-9.2" cy="9.2" rx="7" ry="12" transform="rotate(45)" fill="#A7E8E3"/>
    <ellipse cx="-13" cy="0" rx="7" ry="12" transform="rotate(90)" fill="#FFB0CF"/>
    <ellipse cx="-9.2" cy="-9.2" rx="7" ry="12" transform="rotate(135)" fill="#FFA26E"/>
    <circle cx="0" cy="0" r="6.5" fill="#F28449"/>
  </g>
  <path d="M33 39L35.5 49.5" stroke="#52B788" stroke-width="2.4" stroke-linecap="round"/>
  <path d="M35.5 44.5C39.5 42.8 42.2 39.8 43.5 36" stroke="#52B788" stroke-width="2.2" stroke-linecap="round"/>
</svg>
